<svg width="549" height="507" viewBox="0 0 549 507" fill="none" xmlns="http://www.w3.org/2000/svg">
<g clip-path="url(#clip0_2108_34)">
<g filter="url(#filter0_d_2108_34)">
<path d="M18.3994 87.7246C18.3994 41.0786 59.5357 5.02579 105.934 9.83C157.814 15.2019 223.208 20.6716 274.4 20.6716C325.592 20.6716 390.985 15.2019 442.866 9.83C489.264 5.02579 530.4 41.0786 530.4 87.7245V402.555C530.4 445.081 495.926 479.555 453.4 479.555H95.3994C52.8735 479.555 18.3994 445.081 18.3994 402.555V87.7246Z" fill="white" fill-opacity="0.05"/>
<path d="M442.967 10.8243C488.793 6.07937 529.4 41.6897 529.4 87.7247V402.555C529.4 444.528 495.374 478.555 453.4 478.555H95.3994C53.4258 478.555 19.3994 444.528 19.3994 402.555V87.7247C19.3994 41.6897 60.005 6.07937 105.832 10.8243C157.718 16.1968 223.154 21.672 274.4 21.672C325.646 21.672 391.081 16.1968 442.967 10.8243Z" stroke="url(#paint0_linear_2108_34)" stroke-width="2"/>
</g>
</g>
<defs>
<filter id="filter0_d_2108_34" x="-6.60059" y="-15.6004" width="562" height="522.555" filterUnits="userSpaceOnUse" color-interpolation-filters="sRGB">
<feFlood flood-opacity="0" result="BackgroundImageFix"/>
<feColorMatrix in="SourceAlpha" type="matrix" values="0 0 0 0 0 0 0 0 0 0 0 0 0 0 0 0 0 0 127 0" result="hardAlpha"/>
<feOffset dy="9"/>
<feGaussianBlur stdDeviation="9.2"/>
<feComposite in2="hardAlpha" operator="out"/>
<feColorMatrix type="matrix" values="0 0 0 0 0 0 0 0 0 0 0 0 0 0 0 0 0 0 0.25 0"/>
<feBlend mode="normal" in2="BackgroundImageFix" result="effect1_dropShadow_2108_34"/>
<feBlend mode="normal" in="SourceGraphic" in2="effect1_dropShadow_2108_34" result="shape"/>
</filter>
<linearGradient id="paint0_linear_2108_34" x1="30.3994" y1="44.648" x2="325.682" y2="547.273" gradientUnits="userSpaceOnUse">
<stop stop-color="white" stop-opacity="0.2"/>
<stop offset="0.52" stop-opacity="0"/>
<stop offset="1" stop-color="white" stop-opacity="0.2"/>
</linearGradient>
<clipPath id="clip0_2108_34">
<rect width="549" height="507" fill="white"/>
</clipPath>
</defs>
</svg>
