<svg width="549" height="668" viewBox="0 0 549 668" fill="none" xmlns="http://www.w3.org/2000/svg">
<g clip-path="url(#clip0_2095_10)">
<g filter="url(#filter0_d_2095_10)">
<path d="M18.3994 88.1763C18.3994 40.1212 61.9667 3.62104 109.575 10.1594C160.848 17.201 224.399 24.2021 274.4 24.2021C324.401 24.2021 387.951 17.201 439.224 10.1594C486.833 3.62104 530.4 40.1212 530.4 88.1763V562.871C530.4 605.396 495.926 639.871 453.4 639.871H95.3994C52.8735 639.871 18.3994 605.396 18.3994 562.871V88.1763Z" fill="white" fill-opacity="0.05"/>
<path d="M439.361 11.1498C486.394 4.69072 529.4 40.7533 529.4 88.1762V562.871C529.4 604.844 495.374 638.871 453.4 638.871H95.3994C53.4258 638.871 19.3994 604.844 19.3994 562.871V88.1762C19.3995 40.7533 62.4055 4.69072 109.439 11.1498C160.72 18.1926 224.327 25.2025 274.4 25.2025C324.473 25.2025 388.079 18.1926 439.361 11.1498Z" stroke="url(#paint0_linear_2095_10)" stroke-width="2"/>
</g>
</g>
<defs>
<filter id="filter0_d_2095_10" x="-6.60059" y="-15.6002" width="562" height="682.871" filterUnits="userSpaceOnUse" color-interpolation-filters="sRGB">
<feFlood flood-opacity="0" result="BackgroundImageFix"/>
<feColorMatrix in="SourceAlpha" type="matrix" values="0 0 0 0 0 0 0 0 0 0 0 0 0 0 0 0 0 0 127 0" result="hardAlpha"/>
<feOffset dy="9"/>
<feGaussianBlur stdDeviation="9.2"/>
<feComposite in2="hardAlpha" operator="out"/>
<feColorMatrix type="matrix" values="0 0 0 0 0 0 0 0 0 0 0 0 0 0 0 0 0 0 0.25 0"/>
<feBlend mode="normal" in2="BackgroundImageFix" result="effect1_dropShadow_2095_10"/>
<feBlend mode="normal" in="SourceGraphic" in2="effect1_dropShadow_2095_10" result="shape"/>
</filter>
<linearGradient id="paint0_linear_2095_10" x1="30.3994" y1="56.3705" x2="471.4" y2="615.871" gradientUnits="userSpaceOnUse">
<stop stop-color="white" stop-opacity="0.2"/>
<stop offset="0.52" stop-opacity="0"/>
<stop offset="1" stop-color="white" stop-opacity="0.2"/>
</linearGradient>
<clipPath id="clip0_2095_10">
<rect width="549" height="668" fill="white"/>
</clipPath>
</defs>
</svg>
